<svg xmlns="http://www.w3.org/2000/svg" viewBox="0 0 512 512">
  <circle cx="256" cy="256" r="256" fill="#10B981"/>
  <g fill="#FFFFFF" transform="translate(106, 106) scale(0.6)">
    <!-- Fork -->
    <path d="M120 0 C 140 0 160 20 160 60 L 160 180 C 160 220 140 240 120 240 L 120 400 C 120 420 100 420 100 400 L 100 240 C 80 240 60 220 60 180 L 60 60 C 60 20 80 0 100 0 Z M 80 60 L 80 160 M 100 60 L 100 160 M 120 60 L 120 160 M 140 60 L 140 160" stroke="#FFFFFF" stroke-width="0"/>
    <!-- Simplified Fork Path -->
    <path d="M90 20 L90 140 C90 160 100 180 130 180 L130 460 C130 480 170 480 170 460 L170 180 C200 180 210 160 210 140 L210 20 C210 10 190 10 190 20 L190 120 L170 120 L170 20 C170 10 150 10 150 20 L150 120 L130 120 L130 20 C130 10 110 10 110 20 Z"/>
    
    <!-- Knife -->
    <path d="M310 460 L310 180 C310 180 310 20 350 20 C390 20 390 180 390 180 L390 460 C390 480 350 480 350 460 C350 480 310 480 310 460 Z"/>
    
    <!-- Better Knife Path -->
     <path d="M290 20 C290 10 310 0 330 0 C370 0 410 40 410 160 L410 460 C410 480 370 480 370 460 L370 180 L290 180 L290 20 Z"/>
  </g>
</svg>